<?xml version="1.0" encoding="UTF-8" standalone="no"?>
<!-- Generated by Graphviz version 2.17.20071127.0540 (Tue Nov 27 23:18:34 GMT 2007)
     For user: (zhangyg) Zhang Yungui -->

<!-- Title: touchvg Pages: 1 -->

<svg
   xmlns:dc="http://purl.org/dc/elements/1.1/"
   xmlns:cc="http://creativecommons.org/ns#"
   xmlns:rdf="http://www.w3.org/1999/02/22-rdf-syntax-ns#"
   xmlns:svg="http://www.w3.org/2000/svg"
   xmlns="http://www.w3.org/2000/svg"
   xmlns:xlink="http://www.w3.org/1999/xlink"
   xmlns:sodipodi="http://sodipodi.sourceforge.net/DTD/sodipodi-0.dtd"
   xmlns:inkscape="http://www.inkscape.org/namespaces/inkscape"
   width="316.88596"
   height="357.87747"
   viewBox="0 0 253.50877 286.30197"
   id="svg2"
   version="1.1"
   inkscape:version="0.48.2 r9819"
   sodipodi:docname="core.svg"
   inkscape:export-filename="/Users/zyg/Desktop/touchvg/touchvg.github.io/content/images/core.png"
   inkscape:export-xdpi="90"
   inkscape:export-ydpi="90">
  <metadata
     id="metadata642">
    <rdf:RDF>
      <cc:Work
         rdf:about="">
        <dc:format>image/svg+xml</dc:format>
        <dc:type
           rdf:resource="http://purl.org/dc/dcmitype/StillImage" />
        <dc:title />
      </cc:Work>
    </rdf:RDF>
  </metadata>
  <defs
     id="defs640" />
  <sodipodi:namedview
     pagecolor="#ffffff"
     bordercolor="#666666"
     borderopacity="1"
     objecttolerance="10"
     gridtolerance="10"
     guidetolerance="10"
     inkscape:pageopacity="0"
     inkscape:pageshadow="2"
     inkscape:window-width="1305"
     inkscape:window-height="830"
     id="namedview638"
     showgrid="false"
     inkscape:zoom="1.7592401"
     inkscape:cx="158.44298"
     inkscape:cy="133.46456"
     inkscape:window-x="61"
     inkscape:window-y="0"
     inkscape:window-maximized="0"
     inkscape:current-layer="svg2"
     fit-margin-top="5"
     fit-margin-left="5"
     fit-margin-right="5"
     fit-margin-bottom="5"
     borderlayer="false"
     inkscape:showpageshadow="false"
     showborder="false" />
  <polygon
     id="polygon35"
     points="301,-492 301,-492 247,-492 247,-456 301,-456 "
     style="fill:#ffffff;stroke:#000000"
     transform="matrix(0.5832,0,0,0.5832,-5.1830671,291.226)" />
  <text
     sodipodi:linespacing="125%"
     id="text37"
     style="font-size:5.83199978px;line-height:125%;text-anchor:middle;font-family:Arial"
     y="16.538799"
     x="154.61374">
    <tspan
       id="tspan4272"
       style="font-size:8.63999939px;font-style:normal;font-variant:normal;font-weight:normal;font-stretch:normal;text-align:center;line-height:125%;writing-mode:lr-tb;text-anchor:middle;font-family:Arial;-inkscape-font-specification:Arial">view</tspan>
  </text>
  <polygon
     id="polygon57"
     points="382,-60 382,-24 436,-24 436,-60 436,-60 "
     style="fill:#ffffff;stroke:#000000"
     transform="matrix(0.5832,0,0,0.5832,-5.058034,292.4509)" />
  <text
     sodipodi:linespacing="125%"
     id="text59"
     style="font-size:5.83199978px;line-height:125%;text-anchor:middle;font-family:Arial"
     y="271.5816"
     x="233.34573">
    <tspan
       id="tspan4248"
       style="font-size:8.63999939px;font-style:normal;font-variant:normal;font-weight:normal;font-stretch:normal;text-align:center;line-height:125%;writing-mode:lr-tb;text-anchor:middle;font-family:Arial;-inkscape-font-specification:Arial">canvas</tspan>
  </text>
  <text
     x="233.09566"
     y="264.70477"
     style="font-size:5.5999999px;font-style:normal;font-variant:normal;font-weight:normal;font-stretch:normal;text-align:center;line-height:125%;writing-mode:lr-tb;text-anchor:middle;font-family:Arial;-inkscape-font-specification:Arial"
     id="text5368"
     sodipodi:linespacing="125%">
    <tspan
       style="font-size:5.5999999px;font-style:normal;font-variant:normal;font-weight:normal;font-stretch:normal;text-align:center;line-height:125%;writing-mode:lr-tb;text-anchor:middle;font-family:Arial;-inkscape-font-specification:Arial"
       id="tspan5370">interface</tspan>
  </text>
  <polygon
     id="polygon75"
     points="324,-204 324,-204 270,-204 270,-168 324,-168 "
     style="fill:#ffffff;stroke:#000000"
     transform="matrix(0.5832,0,0,0.5832,-5.1830671,291.226)" />
  <text
     sodipodi:linespacing="125%"
     id="text77"
     style="font-size:5.83199978px;line-height:125%;text-anchor:middle;font-family:Arial"
     y="184.5004"
     x="168.02733">
    <tspan
       id="tspan4252"
       style="font-size:8.63999939px;font-style:normal;font-variant:normal;font-weight:normal;font-stretch:normal;text-align:center;line-height:125%;writing-mode:lr-tb;text-anchor:middle;font-family:Arial;-inkscape-font-specification:Arial">shape</tspan>
  </text>
  <path
     style="fill:none;stroke:#000000;stroke-width:0.56969368"
     d="m 168.02733,151.95219 c 0,4.452 0,9.4605 0,14.469"
     id="path82"
     inkscape:connector-curvature="0" />
  <polygon
     style="fill:#000000;stroke:#000000"
     points="293.5,-214 300.5,-214 300.5,-214 297,-204 "
     id="polygon84"
     transform="matrix(0.5832,0,0,0.5832,-5.1830671,291.226)" />
  <polygon
     id="polygon97"
     points="284,-348 284,-348 226,-348 226,-312 284,-312 "
     style="fill:#ffffff;stroke:#000000"
     transform="matrix(0.5832,0,0,0.5832,-5.1830671,291.226)" />
  <text
     sodipodi:linespacing="125%"
     id="text99"
     style="font-size:5.83199978px;line-height:125%;text-anchor:middle;font-family:Arial"
     y="100.5196"
     x="143.53293">
    <tspan
       id="tspan4260"
       style="font-size:7.92000008px;font-style:normal;font-variant:normal;font-weight:normal;font-stretch:normal;text-align:center;line-height:125%;writing-mode:lr-tb;text-anchor:middle;font-family:Arial;-inkscape-font-specification:Arial">cmdbase</tspan>
  </text>
  <path
     style="fill:none;stroke:#000000;stroke-width:0.58319998"
     d="m 149.94813,109.26759 c 2.3328,4.6656 5.832,10.4976 9.3312,15.7464"
     id="path104"
     inkscape:connector-curvature="0" />
  <polygon
     style="fill:#000000;stroke:#000000"
     points="279.084,-283.042 285.203,-286.441 285.203,-286.441 287,-276 "
     id="polygon106"
     transform="matrix(0.5832,0,0,0.5832,-5.1830671,291.226)" />
  <path
     style="fill:none;stroke:#000000;stroke-width:0.58319998"
     d="m 142.94973,109.26759 c -0.5832,11.0808 -0.5832,28.5768 4.0824,41.9904 2.3328,5.832 5.2488,11.0808 8.1648,15.7464"
     id="path117"
     inkscape:connector-curvature="0" />
  <polygon
     style="fill:#000000;stroke:#000000"
     points="272.541,-210.379 278.365,-214.262 278.365,-214.262 281,-204 "
     id="polygon119"
     transform="matrix(0.5832,0,0,0.5832,-5.1830671,291.226)" />
  <g
     class="node"
     id="node7"
     transform="matrix(0.5832,0,0,0.5832,-5.1830671,291.226)">
    <title
       id="title128">dir_1ceab193fdfa8d16f9f30f1836660d41</title>
    <a
       xlink:href="dir_1ceab193fdfa8d16f9f30f1836660d41.htm"
       target="_top"
       xlink:title="cmdbasic"
       id="a130">
      <polygon
         id="polygon132"
         points="294.75,-420 235.25,-420 235.25,-384 294.75,-384 294.75,-420 "
         style="fill:#ffffff;stroke:#000000" />
      <text
         id="text134"
         style="font-size:10px;line-height:125%;text-anchor:middle;font-family:Arial"
         y="-399"
         x="265"
         sodipodi:linespacing="125%">
        <tspan
           style="font-size:13.58024693px;font-style:normal;font-variant:normal;font-weight:normal;font-stretch:normal;text-align:center;line-height:125%;writing-mode:lr-tb;text-anchor:middle;font-family:Arial;-inkscape-font-specification:Arial"
           id="tspan4282">cmdbasic</tspan>
      </text>
    </a>
  </g>
  <path
     style="fill:none;stroke:#000000;stroke-width:0.58319998"
     d="m 147.61533,67.277184 c -0.5832,4.6656 -1.1664,9.9144 -1.7496,15.1632"
     id="path152"
     inkscape:connector-curvature="0" />
  <polygon
     style="fill:#000000;stroke:#000000"
     points="255.512,-358.299 262.478,-357.602 262.478,-357.602 258,-348 "
     id="polygon154"
     transform="matrix(0.5832,0,0,0.5832,-5.1830671,291.226)" />
  <polygon
     id="polygon180"
     points="396,-348 396,-348 342,-348 342,-312 396,-312 "
     style="fill:#ffffff;stroke:#000000"
     transform="matrix(0.5832,0,0,0.5832,-5.1830671,291.226)" />
  <text
     sodipodi:linespacing="125%"
     id="text182"
     style="font-size:5.83199978px;line-height:125%;text-anchor:middle;font-family:Arial"
     y="100.5196"
     x="210.01773">
    <tspan
       id="tspan4258"
       style="font-size:7.92000008px;font-style:normal;font-variant:normal;font-weight:normal;font-stretch:normal;text-align:center;line-height:125%;writing-mode:lr-tb;text-anchor:middle;font-family:Arial;-inkscape-font-specification:Arial">cmdmgr</tspan>
  </text>
  <path
     style="fill:none;stroke:#000000;stroke-width:0.58319998"
     d="m 199.52013,109.26759 c -5.2488,5.2488 -11.0808,11.0808 -16.9128,16.9128"
     id="path187"
     inkscape:connector-curvature="0" />
  <polygon
     style="fill:#000000;stroke:#000000"
     points="319.596,-285.546 324.546,-280.596 324.546,-280.596 315,-276 "
     id="polygon189"
     transform="matrix(0.5832,0,0,0.5832,-5.1830671,291.226)" />
  <path
     style="fill:none;stroke:#000000;stroke-width:0.58319998"
     d="m 206.51853,109.26759 c -3.4992,11.0808 -4.90703,16.30973 -12.48863,30.30653 -2.916,5.832 -9.99189,17.99573 -17.30624,27.77502"
     id="path200"
     inkscape:connector-curvature="0"
     sodipodi:nodetypes="ccc" />
  <polygon
     style="fill:#000000;stroke:#000000"
     points="310,-204 313.2,-214.1 318.8,-209.9 318.8,-209.9 "
     id="polygon202"
     transform="matrix(0.5832,0,0,0.5832,-7.9824271,291.226)" />
  <polygon
     id="polygon215"
     points="436,-276 436,-276 382,-276 382,-240 436,-240 "
     style="fill:#ffffff;stroke:#000000"
     transform="matrix(0.5832,0,0,0.5832,-5.1830671,291.226)" />
  <text
     sodipodi:linespacing="125%"
     id="text217"
     style="font-size:5.83199978px;line-height:125%;text-anchor:middle;font-family:Arial"
     y="142.50999"
     x="233.34573">
    <tspan
       id="tspan4256"
       style="font-size:8.63999939px;font-style:normal;font-variant:normal;font-weight:normal;font-stretch:normal;text-align:center;line-height:125%;writing-mode:lr-tb;text-anchor:middle;font-family:Arial;-inkscape-font-specification:Arial">export</tspan>
  </text>
  <path
     style="fill:none;stroke:#000000;stroke-width:0.58319998"
     d="m 233.34573,151.25799 c 0,22.1616 0,72.9 0,99.144"
     id="path222"
     inkscape:connector-curvature="0" />
  <polygon
     style="fill:#000000;stroke:#000000"
     points="405.5,-70 412.5,-70 412.5,-70 409,-60 "
     id="polygon224"
     transform="matrix(0.5832,0,0,0.5832,-5.1830671,291.226)" />
  <path
     style="fill:none;stroke:#000000;stroke-width:0.58319998"
     d="m 217.59933,150.67479 c -8.1648,5.832 -19.2456,12.8304 -28.5768,18.6624"
     id="path235"
     inkscape:connector-curvature="0" />
  <polygon
     style="fill:#000000;stroke:#000000"
     points="330.379,-211.459 334.262,-205.635 334.262,-205.635 324,-203 "
     id="polygon237"
     transform="matrix(0.5832,0,0,0.5832,-5.1830671,291.226)" />
  <polygon
     id="polygon250"
     points="344,-60 290,-60 290,-24 344,-24 344,-60 "
     style="fill:#efefef;stroke:#000000"
     transform="matrix(0.5832,0,0,0.5832,-10.951619,292.4509)" />
  <text
     sodipodi:linespacing="125%"
     id="text252"
     style="font-size:5.83199978px;line-height:125%;text-anchor:middle;font-family:Arial"
     y="269.70609"
     x="173.92278">
    <tspan
       id="tspan4246"
       style="font-size:8.63999939px;font-style:normal;font-variant:normal;font-weight:normal;font-stretch:normal;text-align:center;line-height:125%;writing-mode:lr-tb;text-anchor:middle;font-family:Arial;-inkscape-font-specification:Arial">geom</tspan>
  </text>
  <polygon
     id="polygon259"
     points="370,-132 370,-132 316,-132 316,-96 370,-96 "
     style="fill:#ffffff;stroke:#000000"
     transform="matrix(0.5832,0,0,0.5832,-5.1830671,291.226)" />
  <text
     sodipodi:linespacing="125%"
     id="text261"
     style="font-size:5.83199978px;line-height:125%;text-anchor:middle;font-family:Arial"
     y="226.4908"
     x="194.85454">
    <tspan
       id="tspan4250"
       style="font-size:8.63999939px;font-style:normal;font-variant:normal;font-weight:normal;font-stretch:normal;text-align:center;line-height:125%;writing-mode:lr-tb;text-anchor:middle;font-family:Arial;-inkscape-font-specification:Arial">graph</tspan>
  </text>
  <path
     style="fill:none;stroke:#000000;stroke-width:0.58319998"
     d="m 204.76893,235.23879 c 4.6656,5.2488 9.9144,11.0808 15.1632,16.3296"
     id="path266"
     inkscape:connector-curvature="0" />
  <polygon
     style="fill:#000000;stroke:#000000"
     points="383.781,-65.221 389.049,-69.8306 389.049,-69.8306 393,-60 "
     id="polygon268"
     transform="matrix(0.5832,0,0,0.5832,-5.1830671,291.226)" />
  <path
     style="fill:none;stroke:#000000;stroke-width:0.58319998"
     d="m 190.77213,235.23879 c -1.7496,4.6656 -3.4992,9.9144 -5.2488,15.1632"
     id="path279"
     inkscape:connector-curvature="0" />
  <polygon
     style="fill:#000000;stroke:#000000"
     points="323.521,-70.584 330.226,-68.5725 330.226,-68.5725 324,-60 "
     id="polygon281"
     transform="matrix(0.5832,0,0,0.5832,-5.1830671,291.226)" />
  <polygon
     id="polygon386"
     points="195.75,-348 195.75,-348 116.25,-348 116.25,-312 195.75,-312 "
     style="fill:#ffffff;stroke:#000000"
     transform="matrix(0.5832,0,0,0.5832,-5.1830671,291.226)" />
  <text
     id="text388"
     style="font-size:5.83199978px;text-anchor:middle;font-family:Arial"
     y="100.5196"
     x="85.796135">
    <tspan
       id="tspan4262"
       style="font-size:7.92000008px;font-style:normal;font-variant:normal;font-weight:normal;font-stretch:normal;text-align:center;line-height:125%;writing-mode:lr-tb;text-anchor:middle;font-family:Arial;-inkscape-font-specification:Arial">jsonstorage</tspan>
  </text>
  <polygon
     id="polygon395"
     points="77.754,-348 77.754,-348 16.246,-348 16.246,-312 77.754,-312 "
     style="fill:#ffffff;stroke:#000000"
     transform="matrix(0.5832,0,0,0.5832,-5.1830671,291.226)" />
  <text
     sodipodi:linespacing="125%"
     id="text397"
     style="font-size:5.83199978px;line-height:125%;text-anchor:middle;font-family:Arial"
     y="100.5196"
     x="22.227333">
    <tspan
       id="tspan4268"
       style="font-size:7.92000008px;font-style:normal;font-variant:normal;font-weight:normal;font-stretch:normal;text-align:center;line-height:125%;writing-mode:lr-tb;text-anchor:middle;font-family:Arial;-inkscape-font-specification:Arial">shapedoc</tspan>
  </text>
  <polygon
     id="polygon430"
     points="160,-420 160,-420 106,-420 106,-384 160,-384 "
     style="fill:#ffffff;stroke:#000000"
     transform="matrix(0.5832,0,0,0.5832,-5.1830671,291.226)" />
  <text
     sodipodi:linespacing="125%"
     id="text432"
     style="font-size:5.83199978px;line-height:125%;text-anchor:middle;font-family:Arial"
     y="58.529202"
     x="72.38253">
    <tspan
       id="tspan4270"
       style="font-size:8.63999939px;font-style:normal;font-variant:normal;font-weight:normal;font-stretch:normal;text-align:center;line-height:125%;writing-mode:lr-tb;text-anchor:middle;font-family:Arial;-inkscape-font-specification:Arial">record</tspan>
  </text>
  <path
     style="fill:none;stroke:#000000;stroke-width:0.58319998"
     d="m 75.298531,67.277194 c 1.1664,4.6656 2.3328,9.9144 3.4992,15.1632"
     id="path437"
     inkscape:connector-curvature="0" />
  <polygon
     style="fill:#000000;stroke:#000000"
     points="140.774,-356.573 147.479,-358.584 147.479,-358.584 147,-348 "
     id="polygon439"
     transform="matrix(0.5832,0,0,0.5832,-5.1830671,291.226)" />
  <path
     style="fill:none;stroke:#000000;stroke-width:0.58319998"
     d="m 59.552131,67.277194 c -6.4152,5.2488 -13.9968,11.664 -20.412,17.496"
     id="path463"
     inkscape:connector-curvature="0" />
  <polygon
     style="fill:#000000;stroke:#000000"
     points="73.9,-356.8 78.1,-351.2 78.1,-351.2 68,-348 "
     id="polygon465"
     transform="matrix(0.5832,0,0,0.5832,-5.1830671,291.226)" />
  <path
     style="fill:none;stroke:#000000;stroke-width:0.58319998"
     d="m 175.02573,193.24839 c 2.916,4.6656 6.9984,10.4976 10.4976,16.3296"
     id="path489"
     inkscape:connector-curvature="0" />
  <polygon
     style="fill:#000000;stroke:#000000"
     points="323.732,-138.625 329.668,-142.335 329.668,-142.335 332,-132 "
     id="polygon491"
     transform="matrix(0.5832,0,0,0.5832,-5.1830671,291.226)" />
  <path
     style="fill:none;stroke:#000000;stroke-width:0.58319998"
     d="m 24.560131,109.2676 c 9.067667,21.91875 30.500302,37.41459 50.323529,47.66952 22.444432,10.87795 37.70202,17.19743 70.37304,24.79084"
     id="path502"
     inkscape:connector-curvature="0"
     sodipodi:nodetypes="ccc" />
  <polygon
     style="fill:#000000;stroke:#000000"
     points="259.508,-188.529 260.881,-195.393 260.881,-195.393 270,-190 "
     id="polygon504"
     transform="matrix(0.5832,0,0,0.5832,-6.1161871,294.02536)" />
  <path
     style="fill:none;stroke:#000000;stroke-width:0.58319998"
     d="m 153.44733,25.286784 c -0.5832,4.6656 -1.1664,9.9144 -1.7496,15.1632"
     id="path528"
     inkscape:connector-curvature="0" />
  <polygon
     style="fill:#000000;stroke:#000000"
     points="265.529,-430.492 272.393,-429.119 272.393,-429.119 267,-420 "
     id="polygon530"
     transform="matrix(0.5832,0,0,0.5832,-5.1830671,291.226)" />
  <path
     style="fill:none;stroke:#000000;stroke-width:0.58319998"
     d="m 166.86093,25.286784 c 6.4152,5.832 13.4136,13.4136 19.2456,20.9952 8.1648,11.0808 13.9968,25.6608 18.0792,36.7416"
     id="path541"
     inkscape:connector-curvature="0" />
  <polygon
     style="fill:#000000;stroke:#000000"
     points="355.74,-355.717 362.137,-358.56 362.137,-358.56 363,-348 "
     id="polygon543"
     transform="matrix(0.5832,0,0,0.5832,-5.1830671,291.226)" />
  <path
     style="fill:none;stroke:#000000;stroke-width:0.58319998"
     d="m 170.36013,18.288384 c 22.1616,5.832 62.42822,26.82123 71.54682,45.63863 10.0237,19.03597 7.34314,40.674976 -1.56282,61.086976"
     id="path554"
     inkscape:connector-curvature="0"
     sodipodi:nodetypes="ccc" />
  <polygon
     style="fill:#000000;stroke:#000000"
     points="417.863,-286.56 424.26,-283.717 424.26,-283.717 417,-276 "
     id="polygon556"
     transform="matrix(0.5832,0,0,0.5832,-5.1830671,291.226)" />
  <path
     style="fill:none;stroke:#000000;stroke-width:0.58319998"
     d="m 145.28253,25.286784 c -5.832,5.832 -12.8304,13.9968 -18.6624,20.9952 -9.9144,12.8304 -22.1616,26.8272 -30.9096,37.3248"
     id="path567"
     inkscape:connector-curvature="0" />
  <polygon
     style="fill:#000000;stroke:#000000"
     points="170.2,-358.1 175.8,-353.9 175.8,-353.9 167,-348 "
     id="polygon569"
     transform="matrix(0.5832,0,0,0.5832,-5.1830671,291.226)" />
  <path
     style="fill:none;stroke:#000000;stroke-width:0.58319998"
     d="m 138.86733,22.953994 c -12.8304,6.4152 -30.9096,16.3296 -45.4896,23.328"
     id="path580"
     inkscape:connector-curvature="0" />
  <polygon
     style="fill:#000000;stroke:#000000"
     points="167.717,-423.26 170.56,-416.863 170.56,-416.863 160,-416 "
     id="polygon582"
     transform="matrix(0.5832,0,0,0.5832,-5.1830671,291.226)" />
  <path
     style="fill:none;stroke:#000000;stroke-width:0.58319998"
     d="m 138.86733,15.955591 c -22.1616,2.332803 -61.819199,9.914403 -87.479999,30.326403 -11.664,9.3312 -19.2456,24.4944 -23.9112,36.7416"
     id="path606"
     inkscape:connector-curvature="0" />
  <polygon
     style="fill:#000000;stroke:#000000"
     points="52.842,-358.594 59.4827,-356.38 59.4827,-356.38 53,-348 "
     id="polygon608"
     transform="matrix(0.5832,0,0,0.5832,-5.1830671,291.226)" />
  <polygon
     style="fill:#efefef;stroke:#000000"
     points="370,-96 370,-132 370,-132 316,-132 316,-96 "
     id="polygon3152"
     transform="matrix(0.5832,0,0,0.5832,-50.820155,291.72613)" />
  <text
     x="149.21744"
     y="226.99094"
     style="font-size:5.83199978px;line-height:125%;text-anchor:middle;font-family:Arial"
     id="text3154"
     sodipodi:linespacing="125%">
    <tspan
       style="font-size:8.63999939px;font-style:normal;font-variant:normal;font-weight:normal;font-stretch:normal;text-align:center;line-height:125%;writing-mode:lr-tb;text-anchor:middle;font-family:Arial;-inkscape-font-specification:Arial"
       id="tspan3156">gshape</tspan>
  </text>
  <path
     inkscape:connector-curvature="0"
     id="path3158"
     d="m 164.18291,193.24839 c -2.916,4.6656 -6.9984,10.4976 -10.4976,16.3296"
     style="fill:none;stroke:#000000;stroke-width:0.58319998" />
  <polygon
     transform="matrix(-0.5832,0,0,0.5832,344.3917,291.226)"
     id="polygon3160"
     points="332,-132 323.732,-138.625 329.668,-142.335 329.668,-142.335 "
     style="fill:#000000;stroke:#000000" />
  <path
     inkscape:connector-curvature="0"
     id="path3162"
     d="m 155.48697,235.36382 c 1.7496,4.6656 3.4992,9.9144 5.2488,15.1632"
     style="fill:none;stroke:#000000;stroke-width:0.58319998" />
  <polygon
     transform="matrix(-0.5832,0,0,0.5832,351.44216,291.35103)"
     id="polygon3164"
     points="324,-60 323.521,-70.584 330.226,-68.5725 330.226,-68.5725 "
     style="fill:#000000;stroke:#000000" />
  <polygon
     style="fill:#ffffff;stroke:#000000"
     points="436,-60 436,-60 382,-60 382,-24 436,-24 "
     id="polygon5374"
     transform="matrix(0.5832,0,0,0.5832,-70.48274,165.66842)" />
  <text
     x="167.56738"
     y="145.86006"
     style="font-size:5.83199978px;line-height:125%;text-anchor:middle;font-family:Arial"
     id="text5376"
     sodipodi:linespacing="125%">
    <tspan
       style="font-size:8.63999939px;font-style:normal;font-variant:normal;font-weight:normal;font-stretch:normal;text-align:center;line-height:125%;writing-mode:lr-tb;text-anchor:middle;font-family:Arial;-inkscape-font-specification:Arial"
       id="tspan5378">cmd</tspan>
  </text>
  <text
     sodipodi:linespacing="125%"
     id="text5380"
     style="font-size:5.5999999px;font-style:normal;font-variant:normal;font-weight:normal;font-stretch:normal;text-align:center;line-height:125%;writing-mode:lr-tb;text-anchor:middle;font-family:Arial;-inkscape-font-specification:Arial"
     y="137.9223"
     x="167.67096">
    <tspan
       id="tspan5382"
       style="font-size:5.5999999px;font-style:normal;font-variant:normal;font-weight:normal;font-stretch:normal;text-align:center;line-height:125%;writing-mode:lr-tb;text-anchor:middle;font-family:Arial;-inkscape-font-specification:Arial">interface</tspan>
  </text>
  <path
     style="opacity:0.95258622;fill:none;stroke:#000000;stroke-width:0.82210064;stroke-linecap:butt;stroke-linejoin:miter;stroke-miterlimit:4;stroke-opacity:0.44247819;stroke-dasharray:1.64420125, 0.82210063;stroke-dashoffset:0"
     d="m 102.46438,222.14003 c -1.028,-4.90471 4.59814,-8.25493 8.34799,-10.46082 7.21073,-3.13877 15.1267,-4.5068 22.88135,-5.70112 9.18543,-0.004 18.37086,0.004 27.55628,4.3e-4 2.98111,2.08859 6.67099,3.4355 7.85845,7.05908 1.25018,4.29165 1.70878,8.57022 3.27886,12.81407 2.44607,4.89446 3.92844,10.28289 7.35172,14.69453 2.31313,3.37788 6.81561,5.48029 10.83126,7.01064 4.46352,1.28235 8.96248,3.17536 10.33691,7.8365 1.99663,4.60438 0.8238,9.72526 1.08005,14.56759 0.40348,4.04582 -2.8746,8.29699 -7.2829,8.56156 -2.93441,2.84089 -8.10958,2.46335 -11.91898,3.36844 -15.31805,-0.20325 -30.65238,0.17543 -45.96062,-0.17757 -5.3094,-0.0921 -10.2645,-1.86465 -15.28417,-3.2023 -5.14173,-1.97509 -7.94888,-6.92928 -10.51675,-11.27122 -1.12878,-4.9577 -4.67245,-8.82506 -5.92069,-13.71265 -1.07866,-4.02177 -1.22658,-8.18855 -2.4741,-12.19338 -0.39268,-6.36395 -0.0491,-12.80413 -0.16466,-19.19378 z"
     id="path3135"
     inkscape:connector-curvature="0" />
  <text
     xml:space="preserve"
     style="font-size:9.60000038px;font-style:normal;font-weight:normal;line-height:125%;letter-spacing:0px;word-spacing:0px;fill:#000000;fill-opacity:1;stroke:none;font-family:Sans"
     x="27.833717"
     y="184.42982"
     id="text3907"
     sodipodi:linespacing="125%"><tspan
       sodipodi:role="line"
       id="tspan3909"
       x="27.833717"
       y="184.42982">TouchVGCore</tspan></text>
  <text
     xml:space="preserve"
     style="font-size:9.60000038px;font-style:normal;font-weight:normal;line-height:125%;letter-spacing:0px;word-spacing:0px;fill:#000000;fill-opacity:1;stroke:none;font-family:Sans"
     x="108.64127"
     y="251.32056"
     id="text3911"
     sodipodi:linespacing="125%"><tspan
       sodipodi:role="line"
       id="tspan3913"
       x="108.64127"
       y="251.32056">VGShape</tspan></text>
</svg>
